<?xml version="1.0" standalone="no"?> 
<svg width="10000" height="100%" version="1.1" xmlns="http://www.w3.org/2000/svg">
<rect x="257.764755079315" width="11.6089540100825" y="150" height="145" style="fill:rgb(0,0,255);fill-opacity:0.5;stroke-width:1;stroke:rgb(0,0,0)"/>
<text transform="translate(258.764755079315,154) rotate(90)" font-size="3pt">pinctrl_init</text>
<rect x="275.741392774135" width="12.1606666759081" y="150" height="145" style="fill:rgb(0,255,0);fill-opacity:0.5;stroke-width:1;stroke:rgb(0,0,0)"/>
<text transform="translate(276.741392774135,154) rotate(90)" font-size="3pt">netlink_proto_init</text>
<rect x="292.775521331504" width="639.159123359071" y="150" height="145" style="fill:rgb(255,0,20);fill-opacity:0.5;stroke-width:1;stroke:rgb(0,0,0)"/>
<text transform="translate(298.775521331504,154) rotate(90)">init_menu</text>
<rect x="934.992052380359" width="11.2641335939411" y="150" height="145" style="fill:rgb(255,255,20);fill-opacity:0.5;stroke-width:1;stroke:rgb(0,0,0)"/>
<text transform="translate(935.992052380359,154) rotate(90)" font-size="3pt">acpi_pci_init</text>
<rect x="949.382557747312" width="11.7698702042818" y="150" height="145" style="fill:rgb(255,0,255);fill-opacity:0.5;stroke-width:1;stroke:rgb(0,0,0)"/>
<text transform="translate(950.382557747312,154) rotate(90)" font-size="3pt">dca_init</text>
<rect x="961.359320201278" width="29.4936395939322" y="150" height="145" style="fill:rgb(0,255,255);fill-opacity:0.5;stroke-width:1;stroke:rgb(0,0,0)"/>
<text transform="translate(962.359320201278,154) rotate(90)" font-size="3pt">pci_arch_init</text>
<rect x="993.749451290796" width="34.4130775308779" y="150" height="145" style="fill:rgb(0,128,255);fill-opacity:0.5;stroke-width:1;stroke:rgb(0,0,0)"/>
<text transform="translate(994.749451290796,154) rotate(90)" font-size="3pt">param_sysfs_init</text>
<rect x="1046.55295101586" width="1177.35482887204" y="150" height="145" style="fill:rgb(0,255,128);fill-opacity:0.5;stroke-width:1;stroke:rgb(0,0,0)"/>
<text transform="translate(1052.55295101586,154) rotate(90)">acpi_init</text>
<rect x="2224.98821719181" width="74.3432817200123" y="150" height="145" style="fill:rgb(255,0,128);fill-opacity:0.5;stroke-width:1;stroke:rgb(0,0,0)"/>
<text transform="translate(2225.98821719181,154) rotate(90)" font-size="3pt">vga_arb_device_init</text>
<rect x="2300.43492424347" width="15.057158171493" y="150" height="145" style="fill:rgb(255,255,128);fill-opacity:0.5;stroke-width:1;stroke:rgb(0,0,0)"/>
<text transform="translate(2301.43492424347,154) rotate(90)" font-size="3pt">init_scsi</text>
<rect x="2319.12419079832" width="44.1370132660554" y="150" height="145" style="fill:rgb(255,128,255);fill-opacity:0.5;stroke-width:1;stroke:rgb(0,0,0)"/>
<text transform="translate(2320.12419079832,154) rotate(90)" font-size="3pt">usb_init</text>
<rect x="2364.82438995088" width="10.3905885397171" y="150" height="145" style="fill:rgb(128,255,255);fill-opacity:0.5;stroke-width:1;stroke:rgb(0,0,0)"/>
<text transform="translate(2365.82438995088,154) rotate(90)" font-size="3pt">videodev_init</text>
<rect x="2375.81266721191" width="27.6775854022553" y="150" height="145" style="fill:rgb(0,0,255);fill-opacity:0.5;stroke-width:1;stroke:rgb(0,0,0)"/>
<text transform="translate(2376.81266721191,154) rotate(90)" font-size="3pt">pps_init</text>
<rect x="2403.62818078062" width="10.16070826229" y="150" height="145" style="fill:rgb(0,255,0);fill-opacity:0.5;stroke-width:1;stroke:rgb(0,0,0)"/>
<text transform="translate(2404.62818078062,154) rotate(90)" font-size="3pt">ptp_init</text>
<rect x="2416.8462967327" width="113.560857049123" y="150" height="145" style="fill:rgb(255,0,20);fill-opacity:0.5;stroke-width:1;stroke:rgb(0,0,0)"/>
<text transform="translate(2422.8462967327,154) rotate(90)">cfg80211_init</text>
<rect x="2533.11974105546" width="12.7353673694765" y="150" height="145" style="fill:rgb(255,255,20);fill-opacity:0.5;stroke-width:1;stroke:rgb(0,0,0)"/>
<text transform="translate(2534.11974105546,154) rotate(90)" font-size="3pt">clocksource_done_booting</text>
<rect x="2551.83199563805" width="12.1146906204226" y="150" height="145" style="fill:rgb(255,0,255);fill-opacity:0.5;stroke-width:1;stroke:rgb(0,0,0)"/>
<text transform="translate(2552.83199563805,154) rotate(90)" font-size="3pt">fscache_init</text>
<rect x="2565.60182425595" width="21.5627700226873" y="150" height="145" style="fill:rgb(0,255,255);fill-opacity:0.5;stroke-width:1;stroke:rgb(0,0,0)"/>
<text transform="translate(2566.60182425595,154) rotate(90)" font-size="3pt">pnpacpi_init</text>
<rect x="2587.87722313866" width="172.295267931816" y="150" height="145" style="fill:rgb(0,128,255);fill-opacity:0.5;stroke-width:1;stroke:rgb(0,0,0)"/>
<text transform="translate(2593.87722313866,154) rotate(90)">chr_dev_init</text>
<rect x="2761.45982062407" width="881.567875906238" y="150" height="145" style="fill:rgb(0,255,128);fill-opacity:0.5;stroke-width:1;stroke:rgb(0,0,0)"/>
<text transform="translate(2767.45982062407,154) rotate(90)">init_acpi_pm_clocksource</text>
<rect x="3646.42992463623" width="31.4246339243218" y="150" height="145" style="fill:rgb(255,0,128);fill-opacity:0.5;stroke-width:1;stroke:rgb(0,0,0)"/>
<text transform="translate(3647.42992463623,154) rotate(90)" font-size="3pt">inet_init</text>
<rect x="3684.63602674466" width="8.71246251449793" y="150" height="145" style="fill:rgb(255,255,128);fill-opacity:0.5;stroke-width:1;stroke:rgb(0,0,0)"/>
<text transform="translate(3685.63602674466,154) rotate(90)" font-size="3pt">init</text>
<rect x="3700.06099336004" width="11.6549300655674" y="150" height="145" style="fill:rgb(255,128,255);fill-opacity:0.5;stroke-width:1;stroke:rgb(0,0,0)"/>
<text transform="translate(3701.06099336004,154) rotate(90)" font-size="3pt">futex_init</text>
<rect x="3723.46280560215" width="12.3215828701082" y="150" height="145" style="fill:rgb(128,255,255);fill-opacity:0.5;stroke-width:1;stroke:rgb(0,0,0)"/>
<text transform="translate(3724.46280560215,154) rotate(90)" font-size="3pt">hugetlb_init</text>
<rect x="3761.32408729444" width="15.9536912534604" y="150" height="145" style="fill:rgb(0,0,255);fill-opacity:0.5;stroke-width:1;stroke:rgb(0,0,0)"/>
<text transform="translate(3762.32408729444,154) rotate(90)" font-size="3pt">fuse_init</text>
<rect x="3784.45004320363" width="18.8501827490445" y="150" height="145" style="fill:rgb(0,255,0);fill-opacity:0.5;stroke-width:1;stroke:rgb(0,0,0)"/>
<text transform="translate(3785.45004320363,154) rotate(90)" font-size="3pt">bsg_init</text>
<rect x="3803.43815411913" width="11.0802293720003" y="150" height="145" style="fill:rgb(255,0,20);fill-opacity:0.5;stroke-width:1;stroke:rgb(0,0,0)"/>
<text transform="translate(3804.43815411913,154) rotate(90)" font-size="3pt">noop_init</text>
<rect x="3814.65631165759" width="10.6664448726292" y="150" height="145" style="fill:rgb(255,255,20);fill-opacity:0.5;stroke-width:1;stroke:rgb(0,0,0)"/>
<text transform="translate(3815.65631165759,154) rotate(90)" font-size="3pt">deadline_init</text>
<rect x="3825.46068469667" width="12.781343424962" y="150" height="145" style="fill:rgb(255,0,255);fill-opacity:0.5;stroke-width:1;stroke:rgb(0,0,0)"/>
<text transform="translate(3826.46068469667,154) rotate(90)" font-size="3pt">cfq_init</text>
<rect x="3838.40294431583" width="15.034170143751" y="150" height="145" style="fill:rgb(0,255,255);fill-opacity:0.5;stroke-width:1;stroke:rgb(0,0,0)"/>
<text transform="translate(3839.40294431583,154) rotate(90)" font-size="3pt">crc_t10dif_mod_init</text>
<rect x="3862.56336147345" width="13.4250082017584" y="150" height="145" style="fill:rgb(0,128,255);fill-opacity:0.5;stroke-width:1;stroke:rgb(0,0,0)"/>
<text transform="translate(3863.56336147345,154) rotate(90)" font-size="3pt">ioat_init_module</text>
<rect x="3876.83892670169" width="13.7698286178997" y="150" height="145" style="fill:rgb(0,255,128);fill-opacity:0.5;stroke-width:1;stroke:rgb(0,0,0)"/>
<text transform="translate(3877.83892670169,154) rotate(90)" font-size="3pt">async_initialization</text>
<rect x="3890.74668348605" width="37.8612816922887" y="150" height="145" style="fill:rgb(255,0,128);fill-opacity:0.5;stroke-width:1;stroke:rgb(0,0,0)"/>
<text transform="translate(3891.74668348605,154) rotate(90)" font-size="3pt">pty_init</text>
<rect x="3893.62018695389" width="3519.12222699696" y="300" height="145" style="fill:rgb(255,255,128);fill-opacity:0.5;stroke-width:1;stroke:rgb(0,0,0)"/>
<text transform="translate(3899.62018695389,304) rotate(90)">async_module</text>
<rect x="3933.84923550368" width="32.3901310895167" y="150" height="145" style="fill:rgb(255,128,255);fill-opacity:0.5;stroke-width:1;stroke:rgb(0,0,0)"/>
<text transform="translate(3934.84923550368,154) rotate(90)" font-size="3pt">brd_init</text>
<rect x="3966.35430673191" width="21.8616143833428" y="150" height="145" style="fill:rgb(128,255,255);fill-opacity:0.5;stroke-width:1;stroke:rgb(0,0,0)"/>
<text transform="translate(3967.35430673191,154) rotate(90)" font-size="3pt">loop_init</text>
<rect x="3994.72153296645" width="28.9419269281066" y="150" height="145" style="fill:rgb(0,0,255);fill-opacity:0.5;stroke-width:1;stroke:rgb(0,0,0)"/>
<text transform="translate(3995.72153296645,154) rotate(90)" font-size="3pt">i8042_init</text>
<rect x="4044.95037358433" width="325.901269308788" y="150" height="145" style="fill:rgb(0,255,0);fill-opacity:0.5;stroke-width:1;stroke:rgb(0,0,0)"/>
<text transform="translate(4050.95037358433,154) rotate(90)">rfcomm_init</text>
<rect x="4383.83987856776" width="9.60899559646532" y="150" height="145" style="fill:rgb(255,0,20);fill-opacity:0.5;stroke-width:1;stroke:rgb(0,0,0)"/>
<text transform="translate(4384.83987856776,154) rotate(90)" font-size="3pt">pci_sysfs_init</text>
<rect x="4406.59802603308" width="3311.9541209794" y="150" height="145" style="fill:rgb(255,255,20);fill-opacity:0.5;stroke-width:1;stroke:rgb(0,0,0)"/>
<text transform="translate(4412.59802603308,154) rotate(90)">async_late_init</text>
<rect x="7418.48942088653" width="78.5960668524203" y="450" height="145" style="fill:rgb(255,0,255);fill-opacity:0.5;stroke-width:1;stroke:rgb(0,0,0)"/>
<text transform="translate(7419.48942088653,454) rotate(90)" font-size="3pt">acpi_video_init</text>
<rect x="7547.52122060652" width="106.365604365645" y="600" height="145" style="fill:rgb(0,255,255);fill-opacity:0.5;stroke-width:1;stroke:rgb(0,0,0)"/>
<text transform="translate(7553.52122060652,604) rotate(90)">ahci_pci_driver_init</text>
<rect x="7719.65557234413" width="10.413576567461" y="600" height="145" style="fill:rgb(0,128,255);fill-opacity:0.5;stroke-width:1;stroke:rgb(0,0,0)"/>
<text transform="translate(7720.65557234413,604) rotate(90)" font-size="3pt">init_iso9660_fs</text>
<rect x="7730.23006510579" width="42.9876118789198" y="600" height="145" style="fill:rgb(0,255,128);fill-opacity:0.5;stroke-width:1;stroke:rgb(0,0,0)"/>
<text transform="translate(7731.23006510579,604) rotate(90)" font-size="3pt">init_cifs</text>
<rect x="7730.87372988259" width="21.516793967201" y="750" height="145" style="fill:rgb(255,0,128);fill-opacity:0.5;stroke-width:1;stroke:rgb(0,0,0)"/>
<text transform="translate(7731.87372988259,754) rotate(90)" font-size="3pt">init_ntfs_fs</text>
<rect x="7755.40195548409" width="827.063262128206" y="750" height="145" style="fill:rgb(255,255,128);fill-opacity:0.5;stroke-width:1;stroke:rgb(0,0,0)"/>
<text transform="translate(7761.40195548409,754) rotate(90)">crypto_null_mod_init</text>
<rect x="7797.42407019781" width="10.8733371223143" y="600" height="145" style="fill:rgb(255,128,255);fill-opacity:0.5;stroke-width:1;stroke:rgb(0,0,0)"/>
<text transform="translate(7798.42407019781,604) rotate(90)" font-size="3pt">sha512_generic_mod_init</text>
<rect x="7808.48131154207" width="12.114690620424" y="600" height="145" style="fill:rgb(128,255,255);fill-opacity:0.5;stroke-width:1;stroke:rgb(0,0,0)"/>
<text transform="translate(7809.48131154207,604) rotate(90)" font-size="3pt">wp512_mod_init</text>
<rect x="7835.51523216753" width="16.1146074476583" y="600" height="145" style="fill:rgb(0,0,255);fill-opacity:0.5;stroke-width:1;stroke:rgb(0,0,0)"/>
<text transform="translate(7836.51523216753,604) rotate(90)" font-size="3pt">blowfish_mod_init</text>
<rect x="7897.76681129486" width="92.4348595535484" y="600" height="145" style="fill:rgb(0,255,0);fill-opacity:0.5;stroke-width:1;stroke:rgb(0,0,0)"/>
<text transform="translate(7903.76681129486,604) rotate(90)">prng_mod_init</text>
<rect x="8005.21285296442" width="547.344940554574" y="600" height="145" style="fill:rgb(255,0,20);fill-opacity:0.5;stroke-width:1;stroke:rgb(0,0,0)"/>
<text transform="translate(8011.21285296442,604) rotate(90)">serial8250_init</text>
<rect x="8557.56918356691" width="1356.50052907119" y="600" height="145" style="fill:rgb(255,255,20);fill-opacity:0.5;stroke-width:1;stroke:rgb(0,0,0)"/>
<text transform="translate(8563.56918356691,604) rotate(90)">ohci_pci_init</text>
<rect x="8589.22369776866" width="19.8386679419837" y="750" height="145" style="fill:rgb(255,0,255);fill-opacity:0.5;stroke-width:1;stroke:rgb(0,0,0)"/>
<text transform="translate(8590.22369776866,754) rotate(90)" font-size="3pt">psmouse_init</text>
<rect x="8612.02782128945" width="65.5848431500308" y="750" height="145" style="fill:rgb(0,255,255);fill-opacity:0.5;stroke-width:1;stroke:rgb(0,0,0)"/>
<text transform="translate(8613.02782128945,754) rotate(90)" font-size="3pt">uhid_init</text>
<text transform="translate(0,89) rotate(90)">0.15</text>
<text transform="translate(663.333333333334,89) rotate(90)">0.17</text>
<text transform="translate(1326.66666666667,89) rotate(90)">0.2</text>
<text transform="translate(1990,89) rotate(90)">0.23</text>
<text transform="translate(2653.33333333333,89) rotate(90)">0.26</text>
<text transform="translate(3316.66666666667,89) rotate(90)">0.29</text>
<text transform="translate(3980,89) rotate(90)">0.32</text>
<text transform="translate(4643.33333333333,89) rotate(90)">0.35</text>
<text transform="translate(5306.66666666666,89) rotate(90)">0.38</text>
<text transform="translate(5970,89) rotate(90)">0.4</text>
<text transform="translate(6633.33333333333,89) rotate(90)">0.43</text>
<text transform="translate(7296.66666666666,89) rotate(90)">0.46</text>
<text transform="translate(7960,89) rotate(90)">0.49</text>
<text transform="translate(8623.33333333333,89) rotate(90)">0.52</text>
<text transform="translate(9286.66666666666,89) rotate(90)">0.55</text>
<text transform="translate(9949.99999999999,89) rotate(90)">0.58</text>
</svg>
